<svg width="1440" height="524" viewBox="0 0 1440 524" fill="none" xmlns="http://www.w3.org/2000/svg">
<path d="M1451.29 523.69C1451.29 523.69 1040.12 498.542 975.47 479.884C975.47 479.884 843.701 477.082 816.03 456.869C816.03 456.869 734.098 442.553 718.856 433.771C718.856 433.771 678.973 419.389 672.824 411.643C666.675 403.897 629.147 398.55 616.676 367.126C616.676 367.126 602.292 363.514 603.149 344.71C603.149 344.71 609.529 331.89 632.857 338.525C632.857 338.525 636.456 316.657 716.834 331.587C716.834 331.587 761.985 327.887 777.992 336.777L829.705 338.596C829.705 338.596 863.274 321.004 864.532 311.006L862.006 301.966C862.006 301.966 789.668 259.669 808.207 210.654C808.207 210.654 813.832 189.431 834.804 197.733C834.804 197.733 883.466 249.643 898.796 258.346C898.796 258.346 983.279 299.621 993.336 337.189C993.336 337.189 995.924 368.298 1034.27 364.048L1455.74 384.549L1451.29 523.69Z" fill="#EEAC6D"/>
<path d="M613.25 370.252C613.25 370.252 615.54 343.945 662.48 367.014C662.48 367.014 697.196 388.282 716.862 389.408C716.862 389.408 681.714 381.648 677.356 400.589C677.356 400.589 678.192 417.124 686.072 421.441L668.148 408.507C668.065 408.422 613.458 390.417 613.25 370.252Z" fill="#E29E66"/>
<path d="M632.945 338.445C632.945 338.445 654.108 327.425 692.536 339.272C692.536 339.272 721.565 346.338 733.238 346.712C733.238 346.712 773.789 348.174 781.156 360.521L800.903 353.769C800.903 353.769 787.39 365.614 779.291 370.831C779.291 370.831 737.351 362.107 725.623 363.474C725.623 363.474 707.137 365.455 706.083 366.417C705.029 367.379 680.749 353.164 664.238 354.71C664.241 354.627 649.699 342.631 632.945 338.445Z" fill="#D89761"/>
<path d="M805.088 222.831C805.088 222.831 804.23 249.682 820.424 266.044C820.424 266.044 839.016 290.115 858.686 301.777C858.686 301.777 845.687 332.221 824.089 338.167C824.089 338.167 847.971 343.493 870.226 306.293C870.226 306.293 877.52 296.904 870.754 289.802C870.756 289.719 819.302 258.459 805.088 222.831Z" fill="#D89761"/>
<path d="M1018.93 400.972C1018.04 399.616 1038.22 451.279 1012.77 473.528C1012.77 473.528 1056.78 455.107 1018.93 400.972Z" fill="#D89761"/>
<path d="M915.641 267.678C915.641 267.678 974.265 296.098 991.711 331.995C991.711 331.995 1008.46 368.45 1031.62 364.379C1031.62 364.379 1004.51 371.891 968.956 331.433C968.956 331.433 899.381 256.042 884.797 248.027L915.641 267.678Z" fill="#FFBD7D"/>
<path d="M622.295 359.425C622.295 359.425 644.405 340.139 684.024 373.427C684.024 373.427 720.954 389.456 732.183 393.05C732.183 393.05 705.285 391.361 679.682 375.859C679.684 375.777 645.18 358.58 622.295 359.425Z" fill="#FFBD7D"/>
<path d="M604.139 343.083C604.139 343.083 613.273 318.82 664.323 354.713C664.323 354.713 687.426 352.382 706.168 366.42C706.168 366.42 746.582 356.181 779.376 370.834L800.988 353.772L791.378 376.941L763.772 376.059C763.772 376.059 715.165 367.786 706.035 370.563C706.035 370.563 677.149 356.367 665.61 359.814C665.53 359.646 648.917 337.712 604.139 343.083Z" fill="#FFBD7D"/>
<path d="M679.126 411.928C679.126 411.928 681.253 428.089 720.618 434.657C720.618 434.657 807.687 461.746 816.03 456.869C816.03 456.869 726.939 434.361 719.163 424.158C719.163 424.158 682.268 425.716 679.126 411.928Z" fill="#D89761"/>
<path d="M684.131 391.431C684.131 391.431 729.783 390.734 758.506 412.722C758.506 412.722 776.865 417.374 790.062 426.092C790.062 426.092 779.82 412.989 764.325 409.424C764.325 409.424 746.393 391.43 702.931 387.635C702.933 387.552 689.469 387.205 684.131 391.431Z" fill="#FFBD7D"/>
<path d="M816.031 456.869C816.031 456.869 835.355 484.696 975.47 479.884C975.47 479.884 1051.13 498.23 1078.2 497.353L982.783 472.569C982.783 472.569 852.767 476.294 816.031 456.869Z" fill="#D89761"/>
<path d="M561 177.848C561 128.773 599.792 88.9995 647.618 88.9995C678.882 88.9995 706.132 105.945 721.338 131.438C736.644 105.945 763.944 88.9995 795.159 88.9995C842.984 88.9995 881.776 128.773 881.776 177.848C881.776 204.598 870.234 228.432 852.067 244.774L729.267 370.631C727.159 372.793 724.349 374 721.388 374C718.427 374 715.617 372.793 713.509 370.631L590.759 244.724C572.592 228.432 561 204.598 561 177.848Z" fill="#DC0000"/>
<path d="M-4.00012 336.38C-4.00012 336.38 344.871 304.038 385.518 279.851C385.518 279.851 436.535 287.498 460.674 227.072C460.674 227.072 485.477 176.455 524.797 140.05C524.797 140.05 553.416 129.245 562.209 118.191C562.209 118.191 582.699 119.604 604.432 111.957C604.432 111.957 643.421 116.861 662.749 102.316C662.749 102.316 694.437 110.627 706.88 102.316C706.88 102.316 726.208 91.2612 717.913 76.7159C717.913 76.7159 740.642 67.7394 732.429 50.4513C732.429 50.4513 715.175 40.8099 699.995 46.9605C699.995 46.9605 681.413 36.571 665.486 36.571C665.486 36.571 703.396 30.3373 696.511 7.56354C696.511 7.56354 593.814 3.40775 583.445 0C583.445 0 496.593 33.8282 468.306 37.9839C468.306 37.9839 449.724 44.2176 429.733 88.4353C429.733 88.4353 374.568 167.146 340.143 178.948C340.143 178.948 2.13843 207.135 -3.83423 199.904V336.38H-4.00012Z" fill="#EEAC6D"/>
<path d="M505.469 103.479C505.469 103.479 545.121 81.7031 553.748 78.5447C553.748 78.5447 620.94 88.6848 662.334 81.8693C662.334 81.8693 558.227 75.4694 553.748 72.976C553.748 73.0591 518.244 89.6822 505.469 103.479Z" fill="#D89761"/>
<path d="M717.83 76.467C717.83 76.467 662.583 72.5606 655.034 69.0697C655.034 69.0697 578.717 50.7011 589.169 50.7011C590.911 50.7011 575.73 45.2154 521.313 68.571C521.313 68.571 512.686 68.2385 509.617 65.8282C509.617 65.8282 521.645 64.9139 527.203 63.2516C527.203 63.2516 567.186 42.3064 588.588 47.1271C588.588 47.1271 650.305 59.6776 662.334 63.5009C662.334 63.5009 711.359 75.3865 717.83 76.467Z" fill="#D89761"/>
<path d="M553.748 28.8413C553.748 28.8413 585.436 19.5323 591.658 18.7843C591.658 18.7843 604.764 17.3713 665.403 36.7373C665.403 36.7373 701.571 30.836 696.428 7.72984C696.428 7.72984 680.252 29.5062 662.334 27.4283C662.334 27.4283 601.695 14.296 592.321 13.6311C592.321 13.6311 572.329 17.7869 553.748 28.8413Z" fill="#D89761"/>
<path d="M732.263 50.6172C732.263 50.6172 727.203 67.9884 703.313 68.5702C703.313 68.5702 623.678 52.6951 605.843 51.4484L717.83 76.7987C717.83 76.7987 740.227 68.1547 732.263 50.6172Z" fill="#D89761"/>
<path d="M717.83 76.4663C717.83 76.4663 737.738 117.11 662.666 102.482C662.666 102.482 641.595 117.276 604.349 112.123C604.349 112.123 658.85 103.146 662.251 94.8349C662.334 94.7517 718.742 106.388 717.83 76.4663Z" fill="#D89761"/>
<path d="M468.97 50.6177C468.97 50.6177 486.224 46.1294 505.469 50.6177C505.469 50.6177 572.33 27.0959 587.178 26.0985C587.178 26.0985 612.645 23.2726 664.408 46.4619C664.408 46.4619 690.953 48.8722 697.009 52.6956C697.009 52.6956 728.863 48.5398 732.347 50.6177C732.347 50.6177 720.65 41.9736 699.912 47.1268C699.912 47.1268 680.916 36.7373 665.403 36.7373C665.403 36.7373 609.41 19.8648 593.732 18.7843C593.732 18.7843 566.191 22.1921 553.748 28.7582C553.748 28.8413 472.371 47.1268 468.97 50.6177Z" fill="#FFBD7D"/>
<path d="M471.209 85.5263C471.209 85.5263 493.109 80.29 503.81 83.6978C503.81 83.6978 559.969 58.8461 580.293 58.5137C580.293 58.5137 649.891 68.2382 656.527 69.5681C656.527 69.5681 592.653 51.4488 586.431 50.119C586.431 50.119 557.896 50.5345 521.313 68.4876L509.617 65.7448C509.617 65.8279 478.426 78.2953 471.209 85.5263Z" fill="#FFBD7D"/>
<path d="M484.565 187.426C484.565 187.426 464.739 218.595 460.093 228.402C460.093 228.402 438.36 286.417 385.518 279.851C385.518 279.851 425.17 262.397 448.978 224.579C448.978 224.662 471.541 191.665 484.565 187.426Z" fill="#E29E66"/>
</svg>
