<svg width="50" height="47" viewBox="0 0 50 47" fill="none" xmlns="http://www.w3.org/2000/svg">
<path fill-rule="evenodd" clip-rule="evenodd" d="M44.4444 0.505035V41.3494C44.4444 42.5946 43.6826 43.7131 42.5238 44.1692C41.365 44.6252 40.0453 44.3259 39.1966 43.4146L12.1212 14.3433V46.9697H6.06055V6.64334C6.06055 5.39807 6.82236 4.27958 7.98112 3.82355C9.13989 3.36752 10.4597 3.66681 11.3084 4.57807L38.3838 33.6494V0.505035H44.4444Z" fill="#5D796D"/>
<path d="M18.1818 9.34343C18.1818 14.5037 14.1117 18.6869 9.09091 18.6869C4.07014 18.6869 0 14.5037 0 9.34343C0 4.1832 4.07014 0 9.09091 0C14.1117 0 18.1818 4.1832 18.1818 9.34343Z" fill="#5D796D"/>
<path d="M49.9998 37.597C49.9998 42.6486 45.9047 46.7437 40.8531 46.7437C35.8015 46.7437 31.7064 42.6486 31.7064 37.597C31.7064 32.5455 35.8015 28.4503 40.8531 28.4503C45.9047 28.4503 49.9998 32.5455 49.9998 37.597Z" fill="#5D796D"/>
<path d="M44.9788 37.6645C44.9788 39.896 43.1698 41.705 40.9384 41.705C38.7069 41.705 36.8979 39.896 36.8979 37.6645C36.8979 35.4331 38.7069 33.6241 40.9384 33.6241C43.1698 33.6241 44.9788 35.4331 44.9788 37.6645Z" fill="white"/>
</svg>
